<?xml version="1.0" encoding="UTF-8" standalone="no"?>
<!-- Created with Inkscape (http://www.inkscape.org/) -->

<svg
   xmlns:dc="http://purl.org/dc/elements/1.1/"
   xmlns:cc="http://creativecommons.org/ns#"
   xmlns:rdf="http://www.w3.org/1999/02/22-rdf-syntax-ns#"
   xmlns:svg="http://www.w3.org/2000/svg"
   xmlns="http://www.w3.org/2000/svg"
   xmlns:sodipodi="http://sodipodi.sourceforge.net/DTD/sodipodi-0.dtd"
   xmlns:inkscape="http://www.inkscape.org/namespaces/inkscape"
   width="24"
   height="24"
   id="svg4152"
   version="1.1"
   inkscape:version="0.91 r"
   viewBox="0 0 24 24"
   sodipodi:docname="wizard-function.svg">
  <defs
     id="defs4154">
    <inkscape:perspective
       sodipodi:type="inkscape:persp3d"
       inkscape:vp_x="0 : 12 : 1"
       inkscape:vp_y="0 : 1000 : 0"
       inkscape:vp_z="24 : 12 : 1"
       inkscape:persp3d-origin="12 : 8 : 1"
       id="perspective4708" />
  </defs>
  <sodipodi:namedview
     id="base"
     pagecolor="#ffffff"
     bordercolor="#666666"
     borderopacity="1.0"
     inkscape:pageopacity="0.0"
     inkscape:pageshadow="2"
     inkscape:zoom="4"
     inkscape:cx="-0.35584164"
     inkscape:cy="51.278802"
     inkscape:current-layer="layer1"
     showgrid="false"
     inkscape:grid-bbox="true"
     inkscape:document-units="px"
     inkscape:object-nodes="true"
     inkscape:snap-global="false"
     inkscape:window-width="1680"
     inkscape:window-height="995"
     inkscape:window-x="0"
     inkscape:window-y="0"
     inkscape:window-maximized="1"
     inkscape:snap-bbox="true"
     inkscape:object-paths="false">
    <inkscape:grid
       type="xygrid"
       id="grid4700" />
  </sodipodi:namedview>
  <metadata
     id="metadata4157">
    <rdf:RDF>
      <cc:Work
         rdf:about="">
        <dc:format>image/svg+xml</dc:format>
        <dc:type
           rdf:resource="http://purl.org/dc/dcmitype/StillImage" />
        <dc:title />
      </cc:Work>
    </rdf:RDF>
  </metadata>
  <g
     id="layer1"
     inkscape:label="Layer 1"
     inkscape:groupmode="layer"
     transform="translate(0,-8)">
    <path
       sodipodi:nodetypes="cc"
       inkscape:connector-curvature="0"
       id="path4726"
       d="M 4.25,28.9375 19.089303,14.232274"
       style="fill:#646464;fill-opacity:1;fill-rule:evenodd;stroke:#646464;stroke-width:3;stroke-linecap:round;stroke-linejoin:round;stroke-miterlimit:4;stroke-dasharray:none;stroke-opacity:1" />
    <path
       transform="matrix(1.0299577,-0.04095016,0.04095016,1.0299577,-1.7693207,-2.0188099)"
       inkscape:transform-center-y="-0.39433946"
       inkscape:transform-center-x="0.24482218"
       d="m 21.719505,27.269546 -3.919375,-1.674263 -3.60117,2.279523 0.381165,-4.244923 -3.280778,-2.720505 4.154948,-0.949244 1.573538,-3.960887 2.186734,3.658257 4.253278,0.272543 -2.803472,3.210171 z"
       inkscape:randomized="0"
       inkscape:rounded="0"
       inkscape:flatsided="false"
       sodipodi:arg2="1.4904886"
       sodipodi:arg1="0.86217005"
       sodipodi:r2="3.2090211"
       sodipodi:r1="6.4180427"
       sodipodi:cy="22.396605"
       sodipodi:cx="17.542698"
       sodipodi:sides="5"
       id="path4728"
       style="opacity:1;fill:#646464;fill-opacity:1;fill-rule:nonzero;stroke:#646464;stroke-width:0.09701472;stroke-linecap:round;stroke-linejoin:round;stroke-miterlimit:4;stroke-dasharray:none;stroke-dashoffset:0;stroke-opacity:1"
       sodipodi:type="star" />
    <path
       transform="matrix(0.44207333,-0.25080061,0.25080061,0.44207333,1.2882276,8.1506819)"
       sodipodi:type="star"
       style="opacity:1;fill:#646464;fill-opacity:1;fill-rule:nonzero;stroke:#646464;stroke-width:0.19674911;stroke-linecap:round;stroke-linejoin:round;stroke-miterlimit:4;stroke-dasharray:none;stroke-dashoffset:0;stroke-opacity:1"
       id="path4730"
       sodipodi:sides="5"
       sodipodi:cx="7.9625731"
       sodipodi:cy="15.766721"
       sodipodi:r1="6.4180427"
       sodipodi:r2="3.2090211"
       sodipodi:arg1="0.86217005"
       sodipodi:arg2="1.4904886"
       inkscape:flatsided="false"
       inkscape:rounded="0"
       inkscape:randomized="0"
       d="M 12.13938,20.639662 8.2200053,18.965399 4.6188348,21.244922 4.9999998,16.999999 1.7192224,14.279494 5.8741698,13.33025 7.4477084,9.369363 l 2.1867337,3.658258 4.2532779,0.272542 -2.803472,3.210171 z"
       inkscape:transform-center-x="0.032212283"
       inkscape:transform-center-y="0.28070312" />
    <path
       inkscape:transform-center-y="-0.091988575"
       inkscape:transform-center-x="-0.12910041"
       d="M 12.13938,20.639662 8.2200053,18.965399 4.6188348,21.244922 4.9999998,16.999999 1.7192224,14.279494 5.8741698,13.33025 7.4477084,9.369363 l 2.1867337,3.658258 4.2532779,0.272542 -2.803472,3.210171 z"
       inkscape:randomized="0"
       inkscape:rounded="0"
       inkscape:flatsided="false"
       sodipodi:arg2="1.4904886"
       sodipodi:arg1="0.86217005"
       sodipodi:r2="3.2090211"
       sodipodi:r1="6.4180427"
       sodipodi:cy="15.766721"
       sodipodi:cx="7.9625731"
       sodipodi:sides="5"
       id="path4732"
       style="opacity:1;fill:#646464;fill-opacity:1;fill-rule:nonzero;stroke:#646464;stroke-width:0.28056157;stroke-linecap:round;stroke-linejoin:round;stroke-miterlimit:4;stroke-dasharray:none;stroke-dashoffset:0;stroke-opacity:1"
       sodipodi:type="star"
       transform="matrix(0.34408215,0.09299678,-0.09299678,0.34408215,3.2295993,11.763428)" />
    <path
       style="fill:#ffdf55;fill-opacity:1;fill-rule:evenodd;stroke:#000000;stroke-width:3;stroke-linecap:round;stroke-linejoin:round;stroke-miterlimit:4;stroke-dasharray:none;stroke-opacity:1"
       d="M 3.4874369,28.440102 18.32674,13.734876"
       id="path4704"
       inkscape:connector-curvature="0"
       sodipodi:nodetypes="cc" />
    <path
       sodipodi:type="star"
       style="opacity:1;fill:#ffdf55;fill-opacity:1;fill-rule:nonzero;stroke:#000000;stroke-width:0.24253678;stroke-linecap:round;stroke-linejoin:round;stroke-miterlimit:4;stroke-dasharray:none;stroke-dashoffset:0;stroke-opacity:1"
       id="path4702"
       sodipodi:sides="5"
       sodipodi:cx="17.542698"
       sodipodi:cy="22.396605"
       sodipodi:r1="6.4180427"
       sodipodi:r2="3.2090211"
       sodipodi:arg1="0.86217005"
       sodipodi:arg2="1.4904886"
       inkscape:flatsided="false"
       inkscape:rounded="0"
       inkscape:randomized="0"
       d="m 21.719505,27.269546 -3.919375,-1.674263 -3.60117,2.279523 0.381165,-4.244923 -3.280778,-2.720505 4.154948,-0.949244 1.573538,-3.960887 2.186734,3.658257 4.253278,0.272543 -2.803472,3.210171 z"
       inkscape:transform-center-x="0.24482218"
       inkscape:transform-center-y="-0.39433946"
       transform="matrix(1.0299577,-0.04095016,0.04095016,1.0299577,-2.8854372,-2.9139556)" />
    <path
       inkscape:transform-center-y="0.28070312"
       inkscape:transform-center-x="0.032212283"
       d="M 12.13938,20.639662 8.2200053,18.965399 4.6188348,21.244922 4.9999998,16.999999 1.7192224,14.279494 5.8741698,13.33025 7.4477084,9.369363 l 2.1867337,3.658258 4.2532779,0.272542 -2.803472,3.210171 z"
       inkscape:randomized="0"
       inkscape:rounded="0"
       inkscape:flatsided="false"
       sodipodi:arg2="1.4904886"
       sodipodi:arg1="0.86217005"
       sodipodi:r2="3.2090211"
       sodipodi:r1="6.4180427"
       sodipodi:cy="15.766721"
       sodipodi:cx="7.9625731"
       sodipodi:sides="5"
       id="path4706"
       style="opacity:1;fill:#ffdf55;fill-opacity:1;fill-rule:nonzero;stroke:#000000;stroke-width:0.49187276;stroke-linecap:round;stroke-linejoin:round;stroke-miterlimit:4;stroke-dasharray:none;stroke-dashoffset:0;stroke-opacity:1"
       sodipodi:type="star"
       transform="matrix(0.44207333,-0.25080061,0.25080061,0.44207333,0.52566447,7.6532838)" />
    <path
       transform="matrix(0.34408215,0.09299678,-0.09299678,0.34408215,2.4670362,11.26603)"
       sodipodi:type="star"
       style="opacity:1;fill:#ffdf55;fill-opacity:1;fill-rule:nonzero;stroke:#000000;stroke-width:0.70140392;stroke-linecap:round;stroke-linejoin:round;stroke-miterlimit:4;stroke-dasharray:none;stroke-dashoffset:0;stroke-opacity:1"
       id="path4724"
       sodipodi:sides="5"
       sodipodi:cx="7.9625731"
       sodipodi:cy="15.766721"
       sodipodi:r1="6.4180427"
       sodipodi:r2="3.2090211"
       sodipodi:arg1="0.86217005"
       sodipodi:arg2="1.4904886"
       inkscape:flatsided="false"
       inkscape:rounded="0"
       inkscape:randomized="0"
       d="M 12.13938,20.639662 8.2200053,18.965399 4.6188348,21.244922 4.9999998,16.999999 1.7192224,14.279494 5.8741698,13.33025 7.4477084,9.369363 l 2.1867337,3.658258 4.2532779,0.272542 -2.803472,3.210171 z"
       inkscape:transform-center-x="-0.12910041"
       inkscape:transform-center-y="-0.091988575" />
    <path
       inkscape:connector-curvature="0"
       d="m 17.255743,30.335248 c -1.964262,0 -0.982131,-3.4375 -0.982131,-4.125 0,-0.6875 -0.982131,-1.375 -1.964262,-1.375 m 2.946393,-5.5 c -1.964262,0 -0.982131,3.4375 -0.982131,4.125 0,0.6875 -0.982131,1.375 -1.964262,1.375"
       style="fill:none;fill-rule:evenodd;stroke:#666666;stroke-width:1.20000005;stroke-linecap:butt;stroke-linejoin:miter;stroke-miterlimit:4;stroke-dasharray:none;stroke-opacity:1"
       id="path4151" />
    <path
       inkscape:connector-curvature="0"
       id="path4153"
       style="fill:none;fill-rule:evenodd;stroke:#666666;stroke-width:1.20000005;stroke-linecap:butt;stroke-linejoin:miter;stroke-miterlimit:4;stroke-dasharray:none;stroke-opacity:1"
       d="m 20.309875,30.335248 c 1.941599,0 0.9708,-3.4375 0.9708,-4.125 0,-0.6875 0.970799,-1.375 1.941598,-1.375 m -2.912398,-5.5 c 1.941599,0 0.9708,3.4375 0.9708,4.125 0,0.6875 0.970799,1.375 1.941598,1.375" />
    <path
       id="path3345"
       style="fill:none;fill-rule:evenodd;stroke:#800080;stroke-width:1.20000005;stroke-linecap:butt;stroke-linejoin:miter;stroke-miterlimit:4;stroke-dasharray:none;stroke-opacity:1"
       d="m 16.371869,29.9375 c -1.964262,0 -0.982131,-3.4375 -0.982131,-4.125 0,-0.6875 -0.982131,-1.375 -1.964262,-1.375 m 2.946393,-5.5 c -1.964262,0 -0.982131,3.4375 -0.982131,4.125 0,0.6875 -0.982131,1.375 -1.964262,1.375"
       inkscape:connector-curvature="0" />
    <path
       d="m 19.4362,29.9375 c 1.941598,0 0.970799,-3.4375 0.970799,-4.125 0,-0.6875 0.970799,-1.375 1.941599,-1.375 m -2.912398,-5.5 c 1.941598,0 0.970799,3.4375 0.970799,4.125 0,0.6875 0.970799,1.375 1.941599,1.375"
       style="fill:none;fill-rule:evenodd;stroke:#800080;stroke-width:1.20000005;stroke-linecap:butt;stroke-linejoin:miter;stroke-miterlimit:4;stroke-dasharray:none;stroke-opacity:1"
       id="path3349"
       inkscape:connector-curvature="0" />
  </g>
</svg>
