<?xml version="1.0" encoding="UTF-8" standalone="no"?>
<svg
   xmlns:dc="http://purl.org/dc/elements/1.1/"
   xmlns:cc="http://creativecommons.org/ns#"
   xmlns:rdf="http://www.w3.org/1999/02/22-rdf-syntax-ns#"
   xmlns:svg="http://www.w3.org/2000/svg"
   xmlns="http://www.w3.org/2000/svg"
   xmlns:sodipodi="http://sodipodi.sourceforge.net/DTD/sodipodi-0.dtd"
   xmlns:inkscape="http://www.inkscape.org/namespaces/inkscape"
   viewBox="0 0 16 16"
   id="svg2"
   version="1.1"
   inkscape:version="0.91 r"
   sodipodi:docname="insert-math-expression.svg">
  <metadata
     id="metadata10">
    <rdf:RDF>
      <cc:Work
         rdf:about="">
        <dc:format>image/svg+xml</dc:format>
        <dc:type
           rdf:resource="http://purl.org/dc/dcmitype/StillImage" />
      </cc:Work>
    </rdf:RDF>
  </metadata>
  <sodipodi:namedview
     pagecolor="#ffffff"
     bordercolor="#666666"
     borderopacity="1"
     objecttolerance="10"
     gridtolerance="10"
     guidetolerance="10"
     inkscape:pageopacity="0"
     inkscape:pageshadow="2"
     inkscape:window-width="876"
     inkscape:window-height="448"
     id="namedview8"
     showgrid="false"
     inkscape:zoom="14.75"
     inkscape:cx="7.9322034"
     inkscape:cy="8"
     inkscape:window-x="756"
     inkscape:window-y="292"
     inkscape:window-maximized="0"
     inkscape:current-layer="svg2" />
  <defs
     id="defs3051">
    <style
       type="text/css"
       id="current-color-scheme">
      .ColorScheme-Text {
        color:#4d4d4d;
      }
      </style>
  </defs>
  <path
     style="color:#4d4d4d;fill:#000000;fill-opacity:1;stroke:none"
     d="M 7,2 C 5.895,2 5,2.895 5,4 l 0,3 -1.3898305,0 0,1 L 5,8 l 0,6 1,0 0,-6 1.3898305,0 0,-1 L 6,7 6,4 C 6,3.448 6.448,3 7,3 l 1.1864407,0 0,-1 z m 2.4707031,7.7597656 -0.7070312,0.7070314 1.4140621,1.414062 -1.4140621,1.414063 0.7070312,0.707031 1.4140629,-1.414062 1.414062,1.414062 0.707031,-0.707031 -1.414062,-1.414063 1.414062,-1.414062 -0.707031,-0.7070314 -1.414062,1.4140624 z"
     class="ColorScheme-Text"
     id="path6"
     inkscape:connector-curvature="0"
     sodipodi:nodetypes="csccccccccccsscccccccccccccccc" />
</svg>
