<?xml version="1.0" encoding="UTF-8" standalone="no"?>
<svg
   xmlns:dc="http://purl.org/dc/elements/1.1/"
   xmlns:cc="http://creativecommons.org/ns#"
   xmlns:rdf="http://www.w3.org/1999/02/22-rdf-syntax-ns#"
   xmlns:svg="http://www.w3.org/2000/svg"
   xmlns="http://www.w3.org/2000/svg"
   xmlns:sodipodi="http://sodipodi.sourceforge.net/DTD/sodipodi-0.dtd"
   xmlns:inkscape="http://www.inkscape.org/namespaces/inkscape"
   viewBox="0 0 16 16"
   id="svg2"
   version="1.1"
   inkscape:version="0.91 r"
   sodipodi:docname="path-cut.svg">
  <metadata
     id="metadata10">
    <rdf:RDF>
      <cc:Work
         rdf:about="">
        <dc:format>image/svg+xml</dc:format>
        <dc:type
           rdf:resource="http://purl.org/dc/dcmitype/StillImage" />
      </cc:Work>
    </rdf:RDF>
  </metadata>
  <sodipodi:namedview
     pagecolor="#ffffff"
     bordercolor="#666666"
     borderopacity="1"
     objecttolerance="10"
     gridtolerance="10"
     guidetolerance="10"
     inkscape:pageopacity="0"
     inkscape:pageshadow="2"
     inkscape:window-width="876"
     inkscape:window-height="480"
     id="namedview8"
     showgrid="false"
     inkscape:zoom="10.429825"
     inkscape:cx="13.060264"
     inkscape:cy="6.4093579"
     inkscape:window-x="733"
     inkscape:window-y="172"
     inkscape:window-maximized="0"
     inkscape:current-layer="svg2" />
  <defs
     id="defs3051">
    <style
       type="text/css"
       id="current-color-scheme">
      .ColorScheme-Text {
        color:#4d4d4d;
      }
      .ColorScheme-Highlight {
        color:#3daee9;
      }
      </style>
  </defs>
  <path
     style="fill:#000000;fill-opacity:1;stroke:none"
     d="M9 2.03125A4.5 4.5 0 0 0 7.699219 2.378906L8.203 3.252A3.5 3.5 0 0 1 9 3.039063zM10 2.033V3.041A3.5 3.5 0 0 1 10.796875 3.251953L11.299 2.383A4.5 4.5 0 0 0 10 2.033203M6.833984 2.880859A4.5 4.5 0 0 0 5.880859 3.833984L6.754 4.336A3.5 3.5 0 0 1 7.333984 3.75zM12.166 2.881L11.664 3.754A3.5 3.5 0 0 1 12.25 4.333984L13.12 3.834A4.5 4.5 0 0 0 12.166016 2.880859M13.621 4.699L12.748 5.203A3.5 3.5 0 0 1 12.960938 6H13.969A4.5 4.5 0 0 0 13.621094 4.699219M5.382813 4.701172A4.5 4.5 0 0 0 5.0332 6H2V14H10V10.969A4.5 4.5 0 0 0 11.300781 10.621094L10.797 9.748A3.5 3.5 0 0 1 9.5 10 3.5 3.5 0 0 1 6.03906 7 3.5 3.5 0 0 1 6 6.5 3.5 3.5 0 0 1 6.04102 6 3.5 3.5 0 0 1 6.251953 5.203125zM3 7H5.03A4.5 4.5 0 0 0 9 10.966797V13H3zM12.958984 7A3.5 3.5 0 0 1 12.748047 7.796875L13.617 8.299A4.5 4.5 0 0 0 13.966797 7zM12.246094 8.664063A3.5 3.5 0 0 1 11.666016 9.25L12.166 10.119A4.5 4.5 0 0 0 13.11914 9.166016z"
     class="ColorScheme-Text"
     id="path6" />
</svg>
